<?xml version="1.0" encoding="utf-8"?>
<!-- Generator: Adobe Illustrator 14.0.0, SVG Export Plug-In . SVG Version: 6.00 Build 43363)  -->
<!DOCTYPE svg PUBLIC "-//W3C//DTD SVG 1.1//EN" "http://www.w3.org/Graphics/SVG/1.1/DTD/svg11.dtd">
<svg version="1.1" id="Layer_1" xmlns="http://www.w3.org/2000/svg" xmlns:xlink="http://www.w3.org/1999/xlink" x="0px" y="0px"
	 width="1533.333px" height="1523px" viewBox="0 0 1533.333 1523" enable-background="new 0 0 1533.333 1523" xml:space="preserve">
<g>
	<path fill="#77787C" d="M1453.041,599.991h-304.395H844.251c-16.02,0-29,12.99-29,29v374c0,16.02,12.98,29,29,29h304.395h304.395
		c16.02,0,29-12.98,29-29v-374C1482.041,612.981,1469.061,599.991,1453.041,599.991z M1135.496,1015.015
		c0,1.68-1.362,3.041-3.042,3.041h-5.655c-1.68,0-3.041-1.361-3.041-3.041v-5.654c0-1.68,1.361-3.041,3.041-3.041h5.655
		c1.68,0,3.042,1.361,3.042,3.041V1015.015z M1135.496,979.343c0,1.68-1.362,3.041-3.042,3.041h-5.655
		c-1.68,0-3.041-1.361-3.041-3.041v-5.654c0-1.68,1.361-3.043,3.041-3.043h5.655c1.68,0,3.042,1.363,3.042,3.043V979.343z
		 M1135.496,943.669c0,1.682-1.362,3.043-3.042,3.043h-5.655c-1.68,0-3.041-1.361-3.041-3.043v-5.652
		c0-1.68,1.361-3.043,3.041-3.043h5.655c1.68,0,3.042,1.363,3.042,3.043V943.669z M1135.496,907.997
		c0,1.682-1.362,3.043-3.042,3.043h-5.655c-1.68,0-3.041-1.361-3.041-3.043v-5.652c0-1.68,1.361-3.043,3.041-3.043h5.655
		c1.68,0,3.042,1.363,3.042,3.043V907.997z M1135.496,872.325c0,1.681-1.362,3.043-3.042,3.043h-5.655
		c-1.68,0-3.041-1.362-3.041-3.043v-5.653c0-1.68,1.361-3.042,3.041-3.042h5.655c1.68,0,3.042,1.362,3.042,3.042V872.325z
		 M1135.496,836.653c0,1.681-1.362,3.042-3.042,3.042h-5.655c-1.68,0-3.041-1.361-3.041-3.042v-5.654
		c0-1.68,1.361-3.041,3.041-3.041h5.655c1.68,0,3.042,1.361,3.042,3.041V836.653z M1135.496,800.981c0,1.68-1.362,3.042-3.042,3.042
		h-5.655c-1.68,0-3.041-1.362-3.041-3.042v-5.654c0-1.68,1.361-3.041,3.041-3.041h5.655c1.68,0,3.042,1.361,3.042,3.041V800.981z
		 M1135.496,765.31c0,1.68-1.362,3.041-3.042,3.041h-5.655c-1.68,0-3.041-1.361-3.041-3.041v-5.654c0-1.68,1.361-3.042,3.041-3.042
		h5.655c1.68,0,3.042,1.362,3.042,3.042V765.31z M1135.496,729.638c0,1.68-1.362,3.041-3.042,3.041h-5.655
		c-1.68,0-3.041-1.361-3.041-3.041v-5.654c0-1.68,1.361-3.043,3.041-3.043h5.655c1.68,0,3.042,1.363,3.042,3.043V729.638z
		 M1135.496,693.965c0,1.681-1.362,3.042-3.042,3.042h-5.655c-1.68,0-3.041-1.361-3.041-3.042v-5.653
		c0-1.68,1.361-3.043,3.041-3.043h5.655c1.68,0,3.042,1.363,3.042,3.043V693.965z M1135.496,658.293
		c0,1.681-1.362,3.042-3.042,3.042h-5.655c-1.68,0-3.041-1.361-3.041-3.042v-5.654c0-1.68,1.361-3.042,3.041-3.042h5.655
		c1.68,0,3.042,1.362,3.042,3.042V658.293z M1135.496,622.62c0,1.682-1.362,3.043-3.042,3.043h-5.655
		c-1.68,0-3.041-1.361-3.041-3.043v-5.653c0-1.68,1.361-3.042,3.041-3.042h5.655c1.68,0,3.042,1.362,3.042,3.042V622.62z
		 M1173.534,1015.015c0,1.68-1.362,3.041-3.042,3.041h-5.654c-1.68,0-3.041-1.361-3.041-3.041v-5.654
		c0-1.68,1.361-3.041,3.041-3.041h5.654c1.68,0,3.042,1.361,3.042,3.041V1015.015z M1173.534,979.343
		c0,1.68-1.362,3.041-3.042,3.041h-5.654c-1.68,0-3.041-1.361-3.041-3.041v-5.654c0-1.68,1.361-3.043,3.041-3.043h5.654
		c1.68,0,3.042,1.363,3.042,3.043V979.343z M1173.534,943.669c0,1.682-1.362,3.043-3.042,3.043h-5.654
		c-1.68,0-3.041-1.361-3.041-3.043v-5.652c0-1.68,1.361-3.043,3.041-3.043h5.654c1.68,0,3.042,1.363,3.042,3.043V943.669z
		 M1173.534,907.997c0,1.682-1.362,3.043-3.042,3.043h-5.654c-1.68,0-3.041-1.361-3.041-3.043v-5.652
		c0-1.68,1.361-3.043,3.041-3.043h5.654c1.68,0,3.042,1.363,3.042,3.043V907.997z M1173.534,872.325
		c0,1.681-1.362,3.043-3.042,3.043h-5.654c-1.68,0-3.041-1.362-3.041-3.043v-5.653c0-1.68,1.361-3.042,3.041-3.042h5.654
		c1.68,0,3.042,1.362,3.042,3.042V872.325z M1173.534,836.653c0,1.681-1.362,3.042-3.042,3.042h-5.654
		c-1.68,0-3.041-1.361-3.041-3.042v-5.654c0-1.68,1.361-3.041,3.041-3.041h5.654c1.68,0,3.042,1.361,3.042,3.041V836.653z
		 M1173.534,800.981c0,1.68-1.362,3.042-3.042,3.042h-5.654c-1.68,0-3.041-1.362-3.041-3.042v-5.654c0-1.68,1.361-3.041,3.041-3.041
		h5.654c1.68,0,3.042,1.361,3.042,3.041V800.981z M1173.534,765.31c0,1.68-1.362,3.041-3.042,3.041h-5.654
		c-1.68,0-3.041-1.361-3.041-3.041v-5.654c0-1.68,1.361-3.042,3.041-3.042h5.654c1.68,0,3.042,1.362,3.042,3.042V765.31z
		 M1173.534,729.638c0,1.68-1.362,3.041-3.042,3.041h-5.654c-1.68,0-3.041-1.361-3.041-3.041v-5.654c0-1.68,1.361-3.043,3.041-3.043
		h5.654c1.68,0,3.042,1.363,3.042,3.043V729.638z M1173.534,693.965c0,1.681-1.362,3.042-3.042,3.042h-5.654
		c-1.68,0-3.041-1.361-3.041-3.042v-5.653c0-1.68,1.361-3.043,3.041-3.043h5.654c1.68,0,3.042,1.363,3.042,3.043V693.965z
		 M1173.534,658.293c0,1.681-1.362,3.042-3.042,3.042h-5.654c-1.68,0-3.041-1.361-3.041-3.042v-5.654
		c0-1.68,1.361-3.042,3.041-3.042h5.654c1.68,0,3.042,1.362,3.042,3.042V658.293z M1173.534,622.62c0,1.682-1.362,3.043-3.042,3.043
		h-5.654c-1.68,0-3.041-1.361-3.041-3.043v-5.653c0-1.68,1.361-3.042,3.041-3.042h5.654c1.68,0,3.042,1.362,3.042,3.042V622.62z
		 M1484.852,815.988v0.007h-0.008v-0.007H1484.852z"/>
	<line fill="none" stroke="#2A1111" x1="1148.646" y1="599.991" x2="1148.646" y2="1031.991"/>
</g>
</svg>
